<?xml version="1.0" encoding="utf-8"?>
<!-- Generator: Adobe Illustrator 27.6.1, SVG Export Plug-In . SVG Version: 6.00 Build 0)  -->
<svg version="1.1"
	 id="svg6" xmlns:sodipodi="http://sodipodi.sourceforge.net/DTD/sodipodi-0.dtd" xmlns:inkscape="http://www.inkscape.org/namespaces/inkscape" xmlns:svg="http://www.w3.org/2000/svg" inkscape:version="1.2.2 (b0a8486, 2022-12-01)" sodipodi:docname="blueStars.svg"
	 xmlns="http://www.w3.org/2000/svg" xmlns:xlink="http://www.w3.org/1999/xlink" x="0px" y="0px" viewBox="0 0 431 431"
	 style="enable-background:new 0 0 431 431;" xml:space="preserve">
<style type="text/css">
	.st0{fill:#34676F;}
</style>
<sodipodi:namedview  bordercolor="#000000" borderopacity="0.25" id="namedview8" inkscape:current-layer="svg6" inkscape:cx="-73.050847" inkscape:cy="223.71822" inkscape:deskcolor="#d1d1d1" inkscape:pagecheckerboard="0" inkscape:pageopacity="0.0" inkscape:showpageshadow="2" inkscape:window-height="761" inkscape:window-maximized="0" inkscape:window-width="1309" inkscape:window-x="1443" inkscape:window-y="27" inkscape:zoom="0.54756381" pagecolor="#ffffff" showgrid="false">
	</sodipodi:namedview>
<path id="path2" class="st0" d="M196.2,38.4c0.3-0.9,1.6-0.9,1.9,0L250,179.6c0.1,0.3,0.3,0.5,0.6,0.6l141.2,51.9
	c0.9,0.3,0.9,1.6,0,1.9l-141.2,51.9c-0.3,0.1-0.5,0.3-0.6,0.6l-51.9,141.2c-0.3,0.9-1.6,0.9-1.9,0l-51.9-141.2
	c-0.1-0.3-0.3-0.5-0.6-0.6L2.6,234c-0.9-0.3-0.9-1.6,0-1.9l141.2-51.9c0.3-0.1,0.5-0.3,0.6-0.6L196.2,38.4z"/>
<path id="path4" class="st0" d="M330.7,2.6c0.3-0.9,1.6-0.9,1.9,0l25.4,69.1c0.1,0.3,0.3,0.5,0.6,0.6l69.1,25.4
	c0.9,0.3,0.9,1.6,0,1.9l-69.1,25.4c-0.3,0.1-0.5,0.3-0.6,0.6l-25.4,69.1c-0.3,0.9-1.6,0.9-1.9,0l-25.4-69.1
	c-0.1-0.3-0.3-0.5-0.6-0.6l-69.1-25.4c-0.9-0.3-0.9-1.6,0-1.9l69.1-25.4c0.3-0.1,0.5-0.3,0.6-0.6L330.7,2.6z"/>
</svg>
